<?xml version="1.0" encoding="UTF-8"?>
<svg version="1.1" xmlns="http://www.w3.org/2000/svg" width="1024" height="1024">
<path d="M0 0 C337.92 0 675.84 0 1024 0 C1024 337.92 1024 675.84 1024 1024 C686.08 1024 348.16 1024 0 1024 C0 686.08 0 348.16 0 0 Z " fill="#F8F8F8" transform="translate(0,0)"/>
<path d="M0 0 C1.34495041 -0.00855011 1.34495041 -0.00855011 2.71707153 -0.01727295 C4.60791874 -0.02666413 6.49878188 -0.03323332 8.38964844 -0.03710938 C11.21580392 -0.04673197 14.04120457 -0.07777771 16.8671875 -0.109375 C28.28883122 -0.17500909 39.143367 0.71825896 50.36888123 2.83088684 C52.35789838 3.19852008 54.34965357 3.52877485 56.34716797 3.84667969 C82.74043413 8.13457505 109.06541627 21.42121302 130.3828125 37.203125 C131.38054687 37.94054932 131.38054687 37.94054932 132.3984375 38.69287109 C148.64870481 50.90056453 163.76519312 65.48712589 175.3828125 82.203125 C176.1690212 83.28663951 176.95548675 84.36996769 177.7421875 85.453125 C193.78296105 108.03485888 205.08395401 134.03841737 210.3828125 161.203125 C210.52557617 161.91307617 210.66833984 162.62302734 210.81542969 163.35449219 C212.72342162 172.94590334 214.02683293 182.41368686 214.3828125 192.203125 C214.44726562 193.50121094 214.51171875 194.79929687 214.578125 196.13671875 C216.1572005 241.94040058 200.79126454 286.78380705 173.3828125 323.203125 C172.65578125 324.17636719 171.92875 325.14960938 171.1796875 326.15234375 C160.71355602 339.51463757 148.13698496 351.29809701 134.3828125 361.203125 C133.82368164 361.61191895 133.26455078 362.02071289 132.68847656 362.44189453 C113.64269964 376.23234676 90.73065985 388.3067287 67.4453125 392.765625 C59.4002872 391.28796729 54.05072195 382.73095135 49.55078125 376.49609375 C33.11814515 351.53625188 26.27778024 315.91521463 31.5078125 286.515625 C36.00489447 267.17400858 43.9903024 250.97906992 61.1953125 240.015625 C69.92295283 234.65546359 78.90600132 232.42332492 89.0703125 232.453125 C90.11179443 232.45344727 91.15327637 232.45376953 92.22631836 232.45410156 C102.18630095 232.74611556 109.13317808 235.91564002 117.3828125 241.203125 C122.18818454 244.168317 125.54644744 245.98878953 131.3828125 245.203125 C133.53061327 244.30554944 133.53061327 244.30554944 134.3828125 242.203125 C134.31401534 238.48807824 133.76645934 235.91810321 132.0078125 232.640625 C121.73313431 223.09985239 109.73993803 221.98762387 96.3828125 221.203125 C96.0528125 219.553125 95.7228125 217.903125 95.3828125 216.203125 C99.77707932 212.23294553 104.58608103 210.05799178 109.9453125 207.703125 C111.28613892 207.10504028 111.28613892 207.10504028 112.65405273 206.49487305 C117.35838493 204.42605685 122.03372821 202.54726379 126.9453125 201.015625 C133.91953121 198.83927306 140.42586989 195.79946486 145.9453125 190.953125 C148.06463968 186.89875996 148.71907703 182.70080615 149.3828125 178.203125 C135.16766015 179.32658059 126.29022024 184.83678004 116.68481445 194.91259766 C111.74102801 200.04015281 107.04740636 203.8816694 99.8203125 204.515625 C98.61375 204.3609375 98.61375 204.3609375 97.3828125 204.203125 C97.9907824 200.14010667 99.33458002 197.06995025 101.2578125 193.453125 C105.58664232 184.8579004 107.62838822 178.53728133 107.6953125 168.890625 C107.70095215 168.10091309 107.7065918 167.31120117 107.71240234 166.49755859 C107.64714149 161.07415975 107.64714149 161.07415975 105.3828125 156.203125 C101.34666848 155.88023348 98.86485575 155.96682929 95.1953125 157.765625 C90.5744219 161.77039686 88.33513436 166.12659673 87.3828125 172.203125 C87.29762286 173.78094942 87.25181146 175.36131304 87.2421875 176.94140625 C86.95069551 193.97988004 85.55585456 207.59749389 73.1015625 220.04296875 C70.35478361 222.22539508 68.87098191 223.11353161 65.3828125 223.203125 C62.95825776 220.77857026 62.95067832 219.93805056 62.7578125 216.578125 C62.84183591 209.49215084 66.01120352 204.15319168 69.33984375 198.09765625 C72.73945539 191.79667243 74.79781168 186.4830988 74.5703125 179.203125 C74.54324219 178.06875 74.51617188 176.934375 74.48828125 175.765625 C74.43607422 174.4971875 74.43607422 174.4971875 74.3828125 173.203125 C70.99241117 172.07299122 70.61704704 172.21280909 67.5703125 173.703125 C59.06668129 178.30600795 56.07468566 185.23739464 53.3828125 194.203125 C52.15863765 199.79217175 51.29112422 205.43716768 50.40429688 211.08789062 C47.82728371 226.29834208 41.04411089 240.87065528 30.3828125 252.203125 C29.3928125 252.533125 28.4028125 252.863125 27.3828125 253.203125 C25.6538656 251.4741781 26.21047676 249.19800064 26.1953125 246.84375 C26.25352811 240.68381089 27.07004736 234.9595727 28.3828125 228.953125 C28.60283936 227.93025391 28.82286621 226.90738281 29.04956055 225.85351562 C34.71586283 200.69044519 43.51219408 171.59091647 65.95703125 156.46875 C72.11947396 152.72143477 78.52823198 149.71606691 85.0703125 146.703125 C95.50979579 141.86963508 105.14645272 136.09815914 110.7578125 125.640625 C111.5033681 122.73295816 111.58662471 120.1923708 111.3828125 117.203125 C110.26762011 115.88397522 110.26762011 115.88397522 107.4453125 115.828125 C97.62260667 116.04863472 89.8823126 123.63479509 83.3828125 130.203125 C80.54123771 133.25587801 77.76658008 136.36243308 75.0234375 139.50390625 C72.32021878 142.26710763 69.7364015 144.28744471 66.3828125 146.203125 C63.5078125 145.953125 63.5078125 145.953125 61.3828125 145.203125 C61.85313237 140.54943363 63.52840382 138.6782711 66.8203125 135.453125 C77.27780147 124.33924585 83.97764102 109.93507537 90.3828125 96.203125 C90.76566406 95.42195313 91.14851563 94.64078125 91.54296875 93.8359375 C94.61705951 86.48671587 95.35146609 74.11344488 92.36328125 66.66015625 C92.03972656 66.17933594 91.71617187 65.69851562 91.3828125 65.203125 C88.37388742 65.27476607 86.16131067 65.56391694 83.7890625 67.51171875 C74.40005876 77.88273564 74.14739698 89.13804525 74.7734375 102.44140625 C74.97570982 112.0366993 71.74725801 119.19843197 65.3203125 126.328125 C64.34384766 127.44574219 64.34384766 127.44574219 63.34765625 128.5859375 C61.3828125 130.203125 61.3828125 130.203125 57.3828125 130.203125 C57.75373128 125.5295484 58.17520476 121.45126678 59.8828125 117.078125 C62.14080833 110.79355534 63.94139467 101.06569819 61.39453125 94.75390625 C61.06066406 94.24214844 60.72679687 93.73039062 60.3828125 93.203125 C54.17152227 94.79205971 51.24168921 97.37288259 47.83496094 102.55981445 C42.8966365 111.30028537 42.70871118 118.82490993 43.1328125 128.515625 C43.20353932 130.64542273 43.2650596 132.77494397 43.31549072 134.90531921 C43.3642201 136.82453472 43.43860527 138.74304952 43.51464844 140.66137695 C43.2532174 147.68467331 40.81173845 152.46317796 36.7578125 158.015625 C28.49236205 169.92530596 23.34929501 183.00818031 19.45996094 196.92285156 C18.14959832 201.45932304 16.79954641 204.76621353 13.3828125 208.203125 C10.8828125 208.828125 10.8828125 208.828125 8.3828125 208.203125 C3.36998689 203.19029939 2.09271845 198.27396938 2.0703125 191.328125 C2.27445899 172.42833596 9.33217329 157.11159811 18.5703125 141.015625 C24.62055132 130.44715753 29.15121327 119.56059841 29.3828125 107.203125 C29.41133301 106.16599365 29.41133301 106.16599365 29.44042969 105.10791016 C29.8218319 90.03627022 29.64724425 76.57041858 20.0078125 64.140625 C16.78741676 61.76366624 14.3348333 61.43559681 10.3828125 61.203125 C7.31330405 65.04001056 6.76502441 68.35288491 6.88671875 73.11328125 C7.85765998 79.16063965 10.3481786 84.73837196 12.65771484 90.38110352 C17.2832812 102.00420174 18.45532797 114.94474173 13.671875 126.6796875 C11.6912027 130.55700357 9.21494523 133.90841059 6.3828125 137.203125 C4.5078125 136.890625 4.5078125 136.890625 2.3828125 136.203125 C-0.86315095 131.33417982 0.02758912 125.90719267 0.3828125 120.203125 C0.8359375 118.09765625 0.8359375 118.09765625 1.3828125 116.328125 C3.39431802 109.41265712 3.81624462 100.99897313 1.26171875 94.234375 C0.07541306 92.11045093 -1.14771442 90.13968059 -2.6171875 88.203125 C-8.06560052 91.62784176 -10.74933537 96.17263098 -12.6171875 102.203125 C-13.93994315 112.18199362 -12.42325335 120.48093241 -8.80859375 129.80078125 C-6.51783953 136.34257444 -6.43509917 142.85195675 -6.4296875 149.703125 C-6.41744141 150.51910156 -6.40519531 151.33507812 -6.39257812 152.17578125 C-6.3803734 157.24481029 -6.98390417 161.40011 -8.6171875 166.203125 C-9.6071875 166.203125 -10.5971875 166.203125 -11.6171875 166.203125 C-23.73593257 152.70862924 -25.91226634 139.2800829 -26.41796875 121.6328125 C-26.72440329 111.75580091 -27.49212121 101.65884073 -34.5546875 94.140625 C-36.62930542 93.04458392 -36.62930542 93.04458392 -39.1796875 93.078125 C-41.84568502 94.05773044 -41.84568502 94.05773044 -43.4296875 96.828125 C-47.06317923 106.99772542 -44.94040885 118.6313105 -40.6171875 128.203125 C-40.0603125 129.09128906 -39.5034375 129.97945312 -38.9296875 130.89453125 C-38.4965625 131.65636719 -38.0634375 132.41820312 -37.6171875 133.203125 C-38.4296875 135.515625 -38.4296875 135.515625 -39.6171875 137.203125 C-46.45917072 136.69667922 -48.84146038 133.36663282 -53.15234375 128.39453125 C-56.25891847 124.51400849 -58.70019444 120.30465477 -61.046875 115.9296875 C-64.27526924 110.32416715 -67.65850764 106.67560627 -73.6171875 104.203125 C-75.98597691 103.65010023 -78.18178103 103.40193369 -80.6171875 103.203125 C-81.12718596 109.45060612 -80.73599983 114.18841281 -76.6171875 119.203125 C-72.70108062 123.30872092 -68.48718661 126.36280967 -63.5546875 129.140625 C-59.24729792 131.6170447 -56.38620652 134.32691203 -53.2890625 138.18359375 C-51.04873442 140.88978445 -48.50339181 143.20726527 -45.90234375 145.5625 C-44.6171875 147.203125 -44.6171875 147.203125 -44.6171875 151.203125 C-67.76923134 148.53735339 -89.84525025 130.08853443 -103.87817383 112.61791992 C-106.52078251 109.3476471 -109.12862324 106.57016375 -112.6171875 104.203125 C-116.28518565 103.78540696 -116.28518565 103.78540696 -119.6171875 104.203125 C-121.01034586 105.38247648 -121.01034586 105.38247648 -120.9296875 108.703125 C-120.83771873 116.02121179 -117.23816979 121.7569673 -112.6171875 127.203125 C-112.6171875 127.863125 -112.6171875 128.523125 -112.6171875 129.203125 C-111.9571875 129.203125 -111.2971875 129.203125 -110.6171875 129.203125 C-110.6171875 129.863125 -110.6171875 130.523125 -110.6171875 131.203125 C-110.09253906 131.44417969 -109.56789063 131.68523437 -109.02734375 131.93359375 C-105.30070784 133.89657052 -101.84768982 136.29887083 -98.36523438 138.66210938 C-87.0621827 146.10927051 -73.9833597 150.04686137 -61.29907227 154.47094727 C-36.63196878 163.09692931 -23.35118626 172.54954875 -11.796875 196.4921875 C-7.37480331 205.9049414 -3.4398598 215.5342143 0.3828125 225.203125 C0.84276611 226.36400635 0.84276611 226.36400635 1.31201172 227.54833984 C4.53250598 235.84308568 6.13368431 243.24272136 5.3828125 252.203125 C4.3928125 252.203125 3.4028125 252.203125 2.3828125 252.203125 C-0.49326794 248.99785463 -2.90506573 245.43048026 -5.39111328 241.91748047 C-6.54277765 240.3071684 -7.73308949 238.72469647 -8.92578125 237.14453125 C-16.81664526 226.40912701 -21.64438404 214.5535828 -26.3046875 202.140625 C-30.07463236 192.18346167 -34.48817542 184.1614453 -43.6171875 178.265625 C-47.10684467 177.02970475 -49.94154487 176.98258644 -53.6171875 177.203125 C-54.49136572 190.75288738 -48.06760157 198.59488373 -39.91650391 208.60351562 C-35.10932788 214.52170753 -31.8585749 218.59825061 -32.30859375 226.453125 C-32.6171875 228.203125 -32.6171875 228.203125 -33.6171875 229.203125 C-40.77976675 228.83249816 -43.53139687 226.18841845 -48.26171875 221.12890625 C-54.28296359 213.64978123 -57.16828212 204.79383577 -60.36157227 195.8737793 C-62.32690172 190.56216523 -64.74225144 186.31685264 -68.6171875 182.203125 C-69.10832031 181.66300781 -69.59945312 181.12289062 -70.10546875 180.56640625 C-73.47379107 177.52882359 -77.34168191 178.12245508 -81.6171875 178.203125 C-82.33667757 185.86169705 -81.24431893 190.99908559 -76.6171875 197.203125 C-74.87187837 199.13195376 -73.08386373 200.93659738 -71.16796875 202.6953125 C-68.88613864 204.9139181 -67.67910346 206.56848646 -67.3671875 209.765625 C-67.6171875 212.203125 -67.6171875 212.203125 -69.6171875 214.203125 C-74.22221113 213.96800936 -77.44326456 211.55257739 -81.1171875 209.015625 C-95.07788692 199.72392574 -107.79246796 194.88505941 -124.6171875 196.203125 C-126.97933076 197.0980726 -126.97933076 197.0980726 -128.6171875 198.203125 C-128.20099974 203.5095189 -127.51469349 206.50049431 -123.6171875 210.203125 C-116.57497257 215.42764756 -110.3133397 215.85975904 -101.7421875 215.765625 C-92.98964609 215.69939506 -85.5826457 216.27673384 -77.6171875 220.203125 C-76.9571875 220.863125 -76.2971875 221.523125 -75.6171875 222.203125 C-75.9921875 224.828125 -75.9921875 224.828125 -76.6171875 227.203125 C-80.5779129 227.36815522 -83.43737493 227.25188773 -87.3046875 226.203125 C-93.79106901 224.44902572 -101.33039906 223.99143054 -107.6796875 226.453125 C-110.55252518 228.16460277 -112.16074278 229.19920777 -113.6171875 232.203125 C-113.70287253 234.36044632 -113.70287253 234.36044632 -112.6171875 236.203125 C-108.4016471 238.77469649 -104.42788371 238.88583106 -99.6171875 238.203125 C-97.49227485 237.3014093 -95.54819125 236.23471112 -93.5390625 235.1015625 C-90.50944779 233.6852792 -87.88039329 233.81154031 -84.6171875 234.203125 C-82.6171875 236.203125 -82.6171875 236.203125 -82.6171875 239.203125 C-81.98296875 238.9865625 -81.34875 238.77 -80.6953125 238.546875 C-63.27968977 233.35105386 -45.10944224 235.3258154 -28.8671875 243.265625 C-11.67293132 253.20242826 -2.95790901 269.77964358 2.3828125 288.203125 C2.59454102 288.92177734 2.80626953 289.64042969 3.02441406 290.38085938 C10.27307628 316.0441104 7.43690322 344.11409589 -0.91503906 369.09765625 C-1.48339951 370.8019471 -2.02008663 372.51677932 -2.546875 374.234375 C-5.37555389 382.53183309 -11.46384502 390.04978252 -17.6171875 396.203125 C-43.69347776 401.39651614 -79.52807125 381.04936411 -100.4296875 367.265625 C-113.5548538 358.36001377 -126.67913709 348.38297514 -136.91796875 336.2109375 C-138.69752503 334.10819743 -140.55996575 332.10085791 -142.4296875 330.078125 C-155.70558828 315.11070018 -165.71661392 297.49602457 -173.6171875 279.203125 C-173.89159668 278.56858398 -174.16600586 277.93404297 -174.44873047 277.28027344 C-184.70367922 253.04130365 -188.84597389 226.9248774 -188.8671875 200.765625 C-188.86786224 200.01334625 -188.86853699 199.2610675 -188.86923218 198.48599243 C-188.8521764 186.47665291 -188.14974657 174.97396538 -185.6171875 163.203125 C-185.35977783 161.93952148 -185.35977783 161.93952148 -185.09716797 160.65039062 C-174.01330422 106.88523205 -141.47272995 61.20338317 -95.86865234 31.046875 C-67.64616 12.79691083 -33.8617134 0.17244486 0 0 Z " fill="#026FAF" transform="translate(513.6171875,172.796875)"/>
<path d="M0 0 C10.23 0 20.46 0 31 0 C31.804375 3.3103125 31.804375 3.3103125 32.625 6.6875 C34.2372087 13.20794305 36.01270362 19.67185631 37.875 26.125 C41.86339097 39.97493466 45.73817608 53.84060204 49.203125 67.83203125 C49.39714401 68.6144368 49.59116302 69.39684235 49.7910614 70.20295715 C50.75701404 74.10356092 51.71630114 78.00563344 52.6652832 81.91040039 C55.8265442 94.81912638 59.73002136 107.41479979 64 120 C65.04335484 116.14628839 66.08461838 112.29201533 67.125 108.4375 C67.59933472 106.68046753 67.59933472 106.68046753 68.08325195 104.88793945 C70.16257015 97.16557548 72.19104029 89.43163826 74.1875 81.6875 C75.68819058 75.87079791 77.22621877 70.09685232 79.0625 64.375 C81.11027324 57.95127979 82.61410208 51.42252001 84.14477539 44.86108398 C85.628589 38.50976979 87.24376924 32.21549054 88.95703125 25.921875 C90.51349902 20.14724238 91.91963634 14.33303156 93.33789062 8.52319336 C93.64049805 7.29548218 93.64049805 7.29548218 93.94921875 6.04296875 C94.12799561 5.31102295 94.30677246 4.57907715 94.4909668 3.82495117 C95 2 95 2 96 0 C105.57 0 115.14 0 125 0 C128.35888106 12.3158972 128.35888106 12.3158972 129.83203125 18.3359375 C130.15561995 19.65020145 130.47944034 20.96440837 130.8034668 22.27856445 C130.96809418 22.94747711 131.13272156 23.61638977 131.30233765 24.30557251 C134.19078622 36.02230316 137.24425095 47.6614525 140.62890625 59.24609375 C142.0436178 64.10124001 143.34770152 68.98212276 144.625 73.875 C144.83092773 74.66382568 145.03685547 75.45265137 145.24902344 76.26538086 C145.64749812 77.79527339 146.04546297 79.32529882 146.44287109 80.85546875 C148.92039747 90.39209962 151.50630266 99.89382645 154.1875 109.375 C154.44974365 110.31005371 154.7119873 111.24510742 154.98217773 112.20849609 C155.22911377 113.07555176 155.4760498 113.94260742 155.73046875 114.8359375 C155.95114014 115.61501465 156.17181152 116.3940918 156.39916992 117.19677734 C156.85051031 118.99961784 156.85051031 118.99961784 158 120 C158.21615967 119.2157666 158.43231934 118.4315332 158.6550293 117.62353516 C159.48093379 114.62746516 160.30698767 111.63143641 161.13314819 108.63543701 C161.50284694 107.29467104 161.87249616 105.9538914 162.24209595 104.61309814 C164.18404478 97.56861721 166.12919303 90.52512635 168.09692383 83.48779297 C170.17844111 76.04114124 172.17519463 68.57567345 174.12792969 61.09423828 C175.70633393 55.06502957 177.36627832 49.06157597 179.05249023 43.06176758 C181.06142564 35.86979448 182.93075687 28.64254136 184.76928711 21.40527344 C186.62734963 14.17424358 188.7966855 7.16077211 191 0 C200.9 0 210.8 0 221 0 C219.82473377 5.87633116 218.70901082 11.39284798 217.08203125 17.09765625 C216.90446289 17.72465424 216.72689453 18.35165222 216.54394531 18.99765015 C215.97032708 21.02028957 215.39143315 23.04137615 214.8125 25.0625 C214.40218124 26.50582521 213.99227562 27.94926793 213.58276367 29.39282227 C212.76362919 32.27954097 211.94290363 35.16579972 211.12109375 38.05175781 C209.92486154 42.25788889 208.74962239 46.46971207 207.57836914 50.68286133 C204.97123616 60.06006291 202.31076772 69.42128644 199.62890625 78.77734375 C199.32340347 79.84377609 199.0179007 80.91020844 198.70314026 82.00895691 C197.15876052 87.39926166 195.6121445 92.78890736 194.06176758 98.17749023 C191.19082642 108.17731976 188.38455073 118.18540302 185.76786804 128.25492859 C183.68392597 136.26389969 181.44348324 144.22538259 179.1875 152.1875 C177.805625 157.075625 176.42375 161.96375 175 167 C164.44 167 153.88 167 143 167 C139.62440049 156.87320147 139.62440049 156.87320147 138.5612793 153.02880859 C138.20026375 151.72972061 138.20026375 151.72972061 137.83195496 150.40438843 C137.58190201 149.49492462 137.33184906 148.58546082 137.07421875 147.6484375 C136.80414505 146.67250641 136.53407135 145.69657532 136.2558136 144.69107056 C135.68575685 142.62899809 135.11686271 140.5666039 134.54907227 138.50390625 C133.70304419 135.43145064 132.85281645 132.3601821 132.00195312 129.2890625 C128.9279165 118.1661749 125.94941871 107.02310846 123.05831909 95.85131836 C121.27460446 88.98444843 119.36162447 82.1677047 117.3125 75.375 C114.91466643 67.30030037 112.693211 59.25641933 111 51 C108.62967849 54.55548227 107.71402793 58.1135397 106.625 62.1875 C106.29737671 63.38983276 106.29737671 63.38983276 105.96313477 64.61645508 C104.25098214 70.94549433 102.6412753 77.29780512 101.08984375 83.66796875 C98.62104951 93.61840631 95.86989713 103.49983232 93.16015625 113.38671875 C92.78352089 114.76149635 92.78352089 114.76149635 92.39927673 116.16404724 C91.36222018 119.94848921 90.32506273 123.7328987 89.28442383 127.51635742 C85.67706057 140.63724596 82.25669259 153.78730426 79 167 C68.11 167 57.22 167 46 167 C44.5975 161.946875 43.195 156.89375 41.75 151.6875 C36.62560506 133.23421764 31.47956429 114.78700952 26.32833862 96.34120178 C24.74643323 90.67583808 23.16633305 85.00997421 21.587677 79.34370422 C20.52278985 75.5215351 19.45741432 71.69950216 18.39202881 67.87747192 C17.89264607 66.0854441 17.3934889 64.2933534 16.89459229 62.50119019 C13.99836284 52.09767824 11.06524604 41.7056429 8.09179688 31.32392883 C6.23318502 24.8299436 4.40353396 18.3289318 2.625 11.8125 C2.36589844 10.87470703 2.10679688 9.93691406 1.83984375 8.97070312 C1.47439453 7.63362305 1.47439453 7.63362305 1.1015625 6.26953125 C0.88838379 5.49198486 0.67520508 4.71443848 0.45556641 3.91333008 C0 2 0 2 0 0 Z " fill="#036FB0" transform="translate(38,644)"/>
<path d="M0 0 C91.46538462 0 91.46538462 0 109.25390625 16.03125 C118.34727858 25.55599673 123.41084579 37.55693215 123.3125 50.6875 C123.30686035 51.47914551 123.3012207 52.27079102 123.29541016 53.08642578 C123.02372962 66.31807504 118.83056995 79.65040202 109.6171875 89.484375 C95.92023559 102.32113186 77.68403563 107.22142731 59.22265625 107.09765625 C58.14220032 107.09614563 58.14220032 107.09614563 57.03991699 107.09460449 C54.38076151 107.08942095 51.72162895 107.07546017 49.0625 107.0625 C43.101875 107.041875 37.14125 107.02125 31 107 C31 127.13 31 147.26 31 168 C20.77 168 10.54 168 0 168 C0 112.56 0 57.12 0 0 Z " fill="#030303" transform="translate(521,643)"/>
<path d="M0 0 C0.89847656 0.268125 1.79695312 0.53625 2.72265625 0.8125 C13.23633597 4.28331586 22.19764386 9.74564031 27.44140625 19.75 C30.84651455 27.04527477 32.14895456 32.56478054 32.11352539 40.62402344 C32.11367142 41.49267532 32.11381744 42.36132721 32.1139679 43.25630188 C32.11327191 46.12401843 32.10549415 48.99166981 32.09765625 51.859375 C32.09579096 53.8490597 32.09436758 55.83874485 32.09336853 57.82843018 C32.08955212 63.06285879 32.07972929 68.29725961 32.06866455 73.53167725 C32.05843162 78.87397892 32.05386687 84.21628509 32.04882812 89.55859375 C32.03810625 100.03907667 32.02051652 110.51953167 32 121 C23.42 121 14.84 121 6 121 C5.34 116.05 4.68 111.1 4 106 C3.01 106.86625 2.02 107.7325 1 108.625 C-0.32942708 109.75461339 -1.66294754 110.8794227 -3 112 C-3.62519531 112.5259375 -4.25039063 113.051875 -4.89453125 113.59375 C-16.63896107 122.97015833 -29.72555142 124.09316719 -44.26416016 123.32568359 C-53.00040936 122.28569105 -60.15306065 117.39384695 -66 111 C-73.07191812 101.35149156 -74.80856868 91.84403374 -74 80 C-72.36925337 70.50573786 -67.98784575 62.88029892 -60.1875 57.1875 C-44.70582741 47.22678049 -27.43075169 45.80805215 -9.4375 45.9375 C-8.23802734 45.94201172 -7.03855469 45.94652344 -5.80273438 45.95117188 C-2.86843641 45.96286231 0.06575449 45.97924862 3 46 C1.87779204 34.05789125 1.87779204 34.05789125 -4.6640625 24.47265625 C-11.70904502 19.56292905 -20.76338807 20.0378117 -29 21 C-38.0806124 23.06078147 -43.7239558 28.41015359 -50 35 C-54.20953787 33.2703384 -57.35143576 30.31793255 -60.75 27.375 C-61.35199219 26.859375 -61.95398438 26.34375 -62.57421875 25.8125 C-64.05260866 24.54530865 -65.52673171 23.27314225 -67 22 C-65.78099119 15.51774138 -61.18053857 11.55914157 -55.984375 7.84375 C-39.77246463 -2.43581612 -18.51041192 -5.64615684 0 0 Z " fill="#020202" transform="translate(727,690)"/>
<path d="M0 0 C12.8407781 9.79561845 19.5021196 23.88260599 22.60546875 39.484375 C23.52276206 47.20492703 23.35546875 55.02202126 23.35546875 62.796875 C-5.02453125 62.796875 -33.40453125 62.796875 -62.64453125 62.796875 C-58.77537006 75.37164888 -55.86029599 83.90189716 -44.13671875 90.12890625 C-33.85323014 94.37122007 -23.71264389 93.92496067 -13.37890625 90.0703125 C-7.60535058 87.38148515 -3.32243058 83.98394274 0.35546875 78.796875 C3.12984999 80.10908234 5.56337047 81.57169869 8.02734375 83.3984375 C8.69121094 83.88828125 9.35507812 84.378125 10.0390625 84.8828125 C11.06193359 85.64464844 11.06193359 85.64464844 12.10546875 86.421875 C12.80285156 86.9375 13.50023437 87.453125 14.21875 87.984375 C15.93302142 89.25246619 17.64452031 90.5243039 19.35546875 91.796875 C14.05351684 102.78233713 2.90357685 108.52388294 -7.8515625 113.1875 C-23.07636518 118.4158482 -42.7092087 117.86329764 -57.515625 111.578125 C-73.50763196 103.59321168 -83.2006741 90.09592743 -88.89453125 73.546875 C-94.14090783 57.63573292 -93.31493334 39.20606265 -85.9140625 24.1796875 C-78.84295136 10.66845928 -68.06201752 -1.46799234 -53.64453125 -7.203125 C-52.89300781 -7.5021875 -52.14148438 -7.80125 -51.3671875 -8.109375 C-33.81189715 -13.95212187 -15.01281776 -10.37813695 0 0 Z " fill="#036FB0" transform="translate(357.64453125,698.203125)"/>
<path d="M0 0 C9.57 0 19.14 0 29 0 C29.33 22.44 29.66 44.88 30 68 C34.455 63.05 34.455 63.05 39 58 C47.81869145 51.97747901 55.12373516 49.61714735 65.75 49.6875 C67.07898315 49.69595947 67.07898315 49.69595947 68.43481445 49.70458984 C79.04571506 49.90110602 87.79995278 51.92105299 96 59 C105.06523129 68.59133847 107.16926742 79.34556005 107.11352539 92.14819336 C107.11367142 93.03679047 107.11381744 93.92538757 107.1139679 94.84091187 C107.11327518 97.75724794 107.10551297 100.67351893 107.09765625 103.58984375 C107.09578979 105.62008123 107.09436696 107.65031916 107.09336853 109.68055725 C107.08956131 115.00864926 107.07974642 120.33671374 107.06866455 125.66479492 C107.05841177 131.10790637 107.05386264 136.55102229 107.04882812 141.99414062 C107.03812247 152.66277441 107.02054028 163.33138061 107 174 C97.43 174 87.86 174 78 174 C77.9906543 171.49728516 77.98130859 168.99457031 77.97167969 166.41601562 C77.93785175 158.12978759 77.88227044 149.84380708 77.81609726 141.5577774 C77.77665571 136.53590117 77.7444509 131.51419941 77.72900391 126.4921875 C77.71381549 121.64199591 77.67933106 116.7922841 77.63169098 111.94230652 C77.61689972 110.09567952 77.60896028 108.24898402 77.60811615 106.40229797 C77.60573791 103.80739713 77.57859061 101.21381304 77.54589844 98.61914062 C77.5509288 97.8624408 77.55595917 97.10574097 77.56114197 96.32611084 C77.44391251 90.27803811 75.75346075 84.98861708 71.58831406 80.46775055 C65.31846324 74.95014138 59.52483837 74.54795219 51.44921875 74.69140625 C45.09492787 75.25991019 41.11040747 77.55952386 36.75 82.125 C29.36038943 91.95891297 29.39648117 102.2393673 29.390625 114.0390625 C29.3756217 115.77356494 29.35889008 117.5080532 29.34051514 119.24252319 C29.29707043 123.77651678 29.27689367 128.31031772 29.26177979 132.84448242 C29.24212564 137.48367598 29.20016531 142.12266398 29.16015625 146.76171875 C29.08510214 155.84111688 29.03672633 164.92036586 29 174 C19.43 174 9.86 174 0 174 C0 116.58 0 59.16 0 0 Z " fill="#020202" transform="translate(870,637)"/>
<path d="M0 0 C0 11.22 0 22.44 0 34 C9.57 34 19.14 34 29 34 C29.020625 37.774375 29.04125 41.54875 29.0625 45.4375 C29.071604 46.62915771 29.08070801 47.82081543 29.09008789 49.04858398 C29.09258545 49.98001221 29.09508301 50.91144043 29.09765625 51.87109375 C29.10289307 52.82943115 29.10812988 53.78776855 29.11352539 54.77514648 C29 57 29 57 28 58 C25.92737924 58.08767112 23.85179706 58.10695873 21.77734375 58.09765625 C20.51728516 58.09443359 19.25722656 58.09121094 17.95898438 58.08789062 C16.61848891 58.07953403 15.27799412 58.07106907 13.9375 58.0625 C12.59310058 58.0574866 11.2486994 58.05292342 9.90429688 58.04882812 C6.60282059 58.03699488 3.30143197 58.02050971 0 58 C0.0612541 66.91034252 0.13839096 75.82036562 0.23571491 84.73038769 C0.28041111 88.86784601 0.31966875 93.00520603 0.34643555 97.14282227 C0.37247624 101.13710423 0.41288368 105.13100779 0.46318626 109.12505531 C0.47984988 110.64759928 0.49136733 112.1702087 0.49761391 113.69283104 C0.50726088 115.82841886 0.53532493 117.96303975 0.56762695 120.09838867 C0.58428154 121.92040047 0.58428154 121.92040047 0.60127258 123.77922058 C1.03876892 127.31316169 1.86342479 129.1773788 4 132 C7.43939927 134.29293284 8.82562681 134.27019638 12.875 134.25 C13.90367187 134.25515625 14.93234375 134.2603125 15.9921875 134.265625 C19.05200863 133.99540703 21.19701223 133.19720834 24 132 C24.99 132 25.98 132 27 132 C29.64 138.27 32.28 144.54 35 151 C22.07266501 158.0339911 8.4603044 161.3623695 -6.18359375 158.34375 C-13.85103918 155.87655535 -19.64854436 151.96358898 -23.7890625 144.984375 C-27.16034949 138.36962234 -29.15223277 133.20891539 -29.11352539 125.7746582 C-29.11367142 125.04270233 -29.11381744 124.31074646 -29.1139679 123.55661011 C-29.1132714 121.13797031 -29.10549128 118.71940759 -29.09765625 116.30078125 C-29.09579114 114.62355084 -29.09436767 112.94631989 -29.09336853 111.26908875 C-29.0895507 106.85499568 -29.07972666 102.44093553 -29.06866455 98.02685547 C-29.05843467 93.52246547 -29.05386753 89.01807015 -29.04882812 84.51367188 C-29.03810375 75.67576446 -29.02051287 66.83789012 -29 58 C-34.94 58 -40.88 58 -47 58 C-47.020625 55.525 -47.04125 53.05 -47.0625 50.5 C-47.071604 49.73751953 -47.08070801 48.97503906 -47.09008789 48.18945312 C-47.09258545 47.55974609 -47.09508301 46.93003906 -47.09765625 46.28125 C-47.10289307 45.65283203 -47.10812988 45.02441406 -47.11352539 44.37695312 C-46.94756198 40.90207183 -46.43149728 37.45197827 -46 34 C-40.39 34 -34.78 34 -29 34 C-29 24.76 -29 15.52 -29 6 C-15.24390244 2.56097561 -15.24390244 2.56097561 -9.4375 1.3125 C-8.28121094 1.06113281 -7.12492188 0.80976562 -5.93359375 0.55078125 C-3 0 -3 0 0 0 Z " fill="#050505" transform="translate(819,655)"/>
<path d="M0 0 C9.57 0 19.14 0 29 0 C29 56.76 29 113.52 29 172 C19.43 172 9.86 172 0 172 C0 115.24 0 58.48 0 0 Z " fill="#0370B1" transform="translate(406,639)"/>
<path d="M0 0 C9.57 0 19.14 0 29 0 C29 56.43 29 112.86 29 171 C19.43 171 9.86 171 0 171 C0 114.57 0 58.14 0 0 Z " fill="#006EB0" transform="translate(466,640)"/>
<path d="M0 0 C8.4459375 -0.0309375 8.4459375 -0.0309375 17.0625 -0.0625 C18.82601807 -0.071604 20.58953613 -0.08070801 22.40649414 -0.09008789 C23.82438074 -0.09301202 25.24226819 -0.0955594 26.66015625 -0.09765625 C27.38005737 -0.10277222 28.0999585 -0.10788818 28.8416748 -0.11315918 C38.83466941 -0.11486069 47.58222545 1.68972098 54.96875 8.9296875 C60.93757533 16.44923706 61.96770611 24.62161363 61 34 C59.17552692 41.03161788 56.08059129 47.54617709 49.66796875 51.40234375 C42.27324467 55.22720103 35.93154981 57.3103277 27.5390625 57.1953125 C26.83740967 57.19329834 26.13575684 57.19128418 25.4128418 57.18920898 C22.81682707 57.1788238 20.22090628 57.15090176 17.625 57.125 C11.80875 57.08375 5.9925 57.0425 0 57 C0 38.19 0 19.38 0 0 Z " fill="#F6F6F6" transform="translate(552,669)"/>
<path d="M0 0 C0.82693359 0.00451172 1.65386719 0.00902344 2.50585938 0.01367188 C4.52477146 0.02534189 6.54364574 0.04327282 8.5625 0.0625 C9.40241065 21.69019918 9.40241065 21.69019918 2.609375 29.23046875 C-4.20114799 35.76714203 -10.50420261 39.21202074 -20 39.5625 C-25.60527023 39.37260183 -29.942367 38.50581616 -34.4375 35.0625 C-39.3621712 29.75900794 -39.79568761 26.19448447 -39.7109375 19.109375 C-39.25732359 14.05481995 -37.635871 11.29761258 -34.03515625 7.63671875 C-25.06563906 0.20232675 -11.1284424 -0.11657514 0 0 Z " fill="#F1F1F1" transform="translate(721.4375,752.9375)"/>
<path d="M0 0 C7.60395708 4.06296779 11.60371279 9.71172144 15.21484375 17.3984375 C16.0625 20.4375 16.0625 20.4375 16.0625 29.4375 C-2.7475 29.4375 -21.5575 29.4375 -40.9375 29.4375 C-38.92790276 18.38471518 -36.81687389 9.5911203 -27.6640625 2.734375 C-19.09309808 -2.64447071 -9.54018637 -3.72181036 0 0 Z " fill="#F4F7F8" transform="translate(335.9375,711.5625)"/>
<path d="M0 0 C2.5625 0.875 2.5625 0.875 4.1953125 2.98046875 C7.11170104 9.15487993 6.42408344 17.32675851 4.8359375 23.8671875 C2.93087558 28.96284093 0.601929 33.21133184 -3.4375 36.875 C-7 38.0625 -7 38.0625 -10.4375 37.875 C-14.9611469 33.84039601 -16.46884374 28.65080842 -16.9375 22.75 C-16.7749472 15.89956073 -13.32767427 9.07047437 -8.7734375 4.03515625 C-5.98289376 1.6638814 -3.70819099 -0.19016364 0 0 Z " fill="#F5FBFC" transform="translate(502.4375,228.125)"/>
<path d="M0 0 C9.57 0 19.14 0 29 0 C29 56.43 29 112.86 29 171 C19.43 171 9.86 171 0 171 C0 114.57 0 58.14 0 0 Z M2 1 C2 56.44 2 111.88 2 169 C10.58 169 19.16 169 28 169 C28 113.56 28 58.12 28 1 C19.42 1 10.84 1 2 1 Z " fill="#1770AA" transform="translate(466,640)"/>
<path d="M0 0 C2.65683189 1.49748707 4.84652751 2.84652751 7 5 C7.47474082 8.41813393 7.15862868 9.75639167 5.25 12.6875 C2.05737852 15.96880541 -0.66920678 17.29743978 -5.25 17.4375 C-10.49942665 17.35915035 -13.91766015 15.11459171 -18 12 C-17.9158797 9.13990965 -17.43181261 7.45351173 -15.4453125 5.3671875 C-10.41425975 1.04590983 -6.87395692 -0.96924068 0 0 Z " fill="#F2FAFC" transform="translate(404,314)"/>
<path d="M0 0 C2.40668303 4.91364452 3.60981144 8.41006182 3 14 C1.27618505 18.62708224 -0.75289425 21.43198257 -5 24 C-8.125 24.5625 -8.125 24.5625 -11 24 C-13.68327187 21.13784334 -13.99060611 19.08186107 -14.4375 15.1875 C-14.2436806 10.53583435 -12.67794956 6.78216902 -10 3 C-6.64847889 0.25003397 -4.29674129 -0.36829211 0 0 Z " fill="#EFF8FB" transform="translate(567,238)"/>
<path d="M0 0 C2.79193925 1.13147012 5.39782518 2.48600738 8 4 C8.3125 6.6875 8.3125 6.6875 8 10 C4.91936286 13.74672084 2.63843905 15.72298661 -2.26953125 16.23828125 C-8.00861344 16.40578134 -11.57811628 16.08173882 -16 12 C-17.1875 10.0625 -17.1875 10.0625 -17 8 C-12.14952093 2.15089289 -7.71113927 -0.91488093 0 0 Z " fill="#F3FAFC" transform="translate(427,325)"/>
<path d="M0 0 C3.4375 1.8125 3.4375 1.8125 6 4 C6.61875 4.474375 7.2375 4.94875 7.875 5.4375 C9.45931015 7.63793076 9.21394195 9.36138264 9 12 C3.6937968 14.92280223 -0.74447572 16.80135899 -6.84375 15.73828125 C-10.70944374 14.41470133 -13.63202205 12.34302769 -16 9 C-16.25 5.8125 -16.25 5.8125 -15 3 C-10.88964811 -0.9777599 -5.38114062 -0.7933733 0 0 Z " fill="#F5FBFC" transform="translate(655,380)"/>
<path d="M0 0 C2.475 0.495 2.475 0.495 5 1 C5 4.96 5 8.92 5 13 C10.76366336 8.18223045 10.76366336 8.18223045 15.6875 2.5625 C18 0 18 0 20.8125 -0.375 C21.534375 -0.25125 22.25625 -0.1275 23 0 C21.46356148 3.68069887 19.21849055 5.98775204 16.375 8.75 C15.55773437 9.54921875 14.74046875 10.3484375 13.8984375 11.171875 C13.27195312 11.77515625 12.64546875 12.3784375 12 13 C13.6088092 16.89257858 16.2725959 19.67130239 19.125 22.6875 C24 27.87809917 24 27.87809917 24 29 C21.92578125 29.40625 21.92578125 29.40625 19 29 C16.4546395 27.09840772 14.34992761 24.81912527 12.1875 22.5 C11.59001953 21.87996094 10.99253906 21.25992188 10.37695312 20.62109375 C8.90642559 19.09174512 7.4516427 17.54728534 6 16 C5.67 19.96 5.34 23.92 5 28 C3.35 28.33 1.7 28.66 0 29 C0 19.43 0 9.86 0 0 Z " fill="#FEFEFE" transform="translate(874,971)"/>
<path d="M0 0 C3.45128672 1.33207558 5.40996081 2.40996081 8 5 C7.9140625 7.44921875 7.9140625 7.44921875 7 10 C2.98604341 13.11427666 -1.65742794 14.76852206 -6.625 15.625 C-11.15160855 14.78673916 -14.59871944 13.12781076 -18 10 C-18.8125 7.4375 -18.8125 7.4375 -18 5 C-12.29263819 -0.40697435 -7.61548751 -0.62298769 0 0 Z " fill="#F4FAFC" transform="translate(637,310)"/>
<path d="M0 0 C3.60198442 0.19470186 4.76476997 0.74516747 7.25 3.4375 C10.71099436 8.50538459 10.46889077 12.97388528 10 19 C8.875 22.1875 8.875 22.1875 7 24 C4.125 24.625 4.125 24.625 1 24 C-2.65391152 20.99567275 -4.68136507 18.74234978 -5.23828125 13.94921875 C-5.42537115 8.2479001 -4.64004846 5.41217995 -1 1 C-0.67 0.67 -0.34 0.34 0 0 Z " fill="#F2FAFC" transform="translate(436,236)"/>
<path d="M0 0 C1.0209375 0.495 1.0209375 0.495 2.0625 1 C1.80336272 7.34886348 -0.32495974 10.6688614 -4.9375 15 C-7.53929663 16.30089831 -9.5344188 16.16840078 -12.4375 16.1875 C-13.4171875 16.20167969 -14.396875 16.21585937 -15.40625 16.23046875 C-17.9375 16 -17.9375 16 -19.9375 14 C-20.45787088 10.18394687 -20.07323363 8.26624674 -18.3125 4.8125 C-13.30214153 -1.12081925 -7.34246185 -2.49956148 0 0 Z " fill="#F0F9FC" transform="translate(678.9375,398)"/>
<path d="M0 0 C1.63837345 1.63837345 1.17085921 3.50016578 1.1875 5.75 C1.10648639 11.44525687 0.40040393 14.45955567 -3.5 18.75 C-7.20575157 22.08517641 -9.09234069 22.10668825 -14 22 C-16.47572207 18.28641689 -16.68923765 14.30981131 -16 10 C-11.94014079 2.58025731 -8.58720004 -0.37335652 0 0 Z " fill="#F2FAFC" transform="translate(647,331)"/>
<path d="M0 0 C2.84472477 2.25496476 5.16729427 4.52394608 6.2265625 8.01953125 C6.3515625 11.26953125 6.3515625 11.26953125 6.2265625 14.01953125 C2.5097305 16.49741925 -1.46479628 16.79926669 -5.7734375 16.01953125 C-9.87932786 14.12137162 -12.30087488 11.76648507 -14.7109375 7.95703125 C-15.7734375 5.01953125 -15.7734375 5.01953125 -15.7734375 1.01953125 C-10.75798366 -0.98665029 -5.0258975 -2.77863496 0 0 Z " fill="#F1F9FC" transform="translate(387.7734375,294.98046875)"/>
<path d="M0 0 C4.83766699 0.41465717 6.85646376 2.4198615 10 6 C11.33827901 8.67655801 11.20578556 10.82434052 11.25 13.8125 C11.28867187 15.36904297 11.28867187 15.36904297 11.328125 16.95703125 C10.96101749 20.36151636 9.9499248 22.22392285 8 25 C4.20418201 24.88835829 2.29145843 23.65809541 -0.25 21 C-3.45582764 16.93873131 -4.57199386 13.15674465 -4 8 C-2.96333935 5.12410272 -1.63645635 2.57759433 0 0 Z " fill="#EFF8FB" transform="translate(452,256)"/>
<path d="M0 0 C3.09119363 0.69551857 4.64843512 1.62418927 6.8125 3.9375 C8.80053893 9.06454775 9.1348529 14.80288752 7.2734375 20.046875 C5.74582507 22.65499379 4.47705566 23.86544584 1.5625 24.6875 C-2.05212518 23.71772251 -3.62894085 21.83209842 -6 19 C-7.24133624 15.27599129 -7.54111486 11.86824 -7 8 C-4.98497111 4.24787724 -3.54533858 2.36355905 0 0 Z " fill="#F6FCFD" transform="translate(582,219)"/>
<path d="M0 0 C1.49080078 0.02707031 1.49080078 0.02707031 3.01171875 0.0546875 C3.77097656 0.07789063 4.53023437 0.10109375 5.3125 0.125 C5.65628616 5.85476937 5.72237104 10.23751817 2.3125 15.125 C-1.0618918 18.03924747 -2.98036403 19.0542864 -7.4375 19.5 C-10.6875 19.125 -10.6875 19.125 -12.6875 17.125 C-13.49460469 12.43253086 -13.09589567 8.89954352 -10.875 4.6875 C-7.36074261 0.57079848 -5.24962284 -0.12352054 0 0 Z " fill="#F4FBFD" transform="translate(646.6875,278.875)"/>
<path d="M0 0 C0.86882813 -0.00515625 1.73765625 -0.0103125 2.6328125 -0.015625 C4.875 0.25 4.875 0.25 6.875 2.25 C6.64094308 7.28222378 4.8591433 11.27114227 1.875 15.25 C-1.13640803 17.77307159 -2.81812241 18.21825404 -6.75 18.625 C-10.125 18.25 -10.125 18.25 -12.0625 17.1875 C-13.77578429 14.0632757 -13.54026697 11.75010732 -13.125 8.25 C-9.87348436 2.09534539 -6.90549733 -0.04122685 0 0 Z " fill="#EFF9FC" transform="translate(663.125,298.75)"/>
<path d="M0 0 C2.4375 1 2.4375 1 4 2 C4.42004622 8.09067026 4.0566405 11.10816881 0 16 C-2.74505463 17.37252731 -5.00327412 17.13229255 -8.0625 17.125 C-9.68865234 17.12886719 -9.68865234 17.12886719 -11.34765625 17.1328125 C-14 17 -14 17 -15 16 C-15.35223154 10.71652685 -15.51709269 7.24476704 -12 3 C-8.05923481 -0.1745053 -4.98245604 -0.45295055 0 0 Z " fill="#F6FBFD" transform="translate(396,420)"/>
<path d="M0 0 C2.82248127 1.83789478 3.77549273 2.55797456 4.6875 5.75 C5.0625 8.8125 5.0625 8.8125 4.6875 11.75 C1.82948558 14.50384988 -0.3211231 15.20157008 -4.25 15.25 C-8.15773339 15.14065253 -9.08866875 14.92253659 -12.3125 12.4375 C-15.21925337 8.53155016 -16.57630775 6.63044344 -16.3125 1.75 C-10.57612063 -1.60788061 -6.29582782 -2.37578408 0 0 Z " fill="#F4FBFC" transform="translate(388.3125,342.25)"/>
<path d="M0 0 C5.10329727 -0.36308044 8.87463833 -0.58277658 13.5 1.8125 C16.08598105 4.07523342 17.84094977 5.68783564 18.265625 9.19140625 C18.26046875 9.97386719 18.2553125 10.75632812 18.25 11.5625 C18.25515625 12.34753906 18.2603125 13.13257813 18.265625 13.94140625 C18 16 18 16 16 18 C11.24865619 18.47513438 8.9240499 18.46202495 4.625 16.3125 C1.75446494 13.7836953 0.82241497 12.70086738 0 9 C-0.14182499 5.99128421 -0.11800221 3.00905644 0 0 Z " fill="#F3FAFC" transform="translate(408,254)"/>
<path d="M0 0 C3.75212276 2.01502889 5.63644095 3.45466142 8 7 C8.4375 9.4375 8.4375 9.4375 8 12 C5.86288728 14.55074744 4.16665145 15.76838537 0.875 16.421875 C-3.36060168 16.67944537 -6.15539136 16.3409834 -9.5 13.625 C-12.24287499 10.74498126 -12.88070319 9.93449165 -13.375 6.0625 C-13 3 -13 3 -11 1.125 C-7.24367074 -0.28362347 -3.92971499 -0.7075025 0 0 Z " fill="#F0F9FB" transform="translate(385,395)"/>
<path d="M0 0 C2.4375 1 2.4375 1 4.25 3 C5.87912873 7.11569363 6.25052357 10.63575084 5.4375 15 C4.07858656 17.79332206 2.87840502 18.8774739 0.4375 21 C-2.875 21.875 -2.875 21.875 -5.5625 22 C-9.33395038 17.3769318 -11.1488713 15.09826148 -10.5625 9 C-8.07701153 4.47286028 -5.57594053 0 0 0 Z " fill="#F0F9FB" transform="translate(552.5625,216)"/>
<path d="M0 0 C1.84455761 3.68911523 1.35062965 7.96457145 1 12 C-0.71050308 16.14121798 -3.21215849 18.62158789 -7 21 C-10.1875 21.4375 -10.1875 21.4375 -13 21 C-15.82446971 16.76329544 -15.78005466 12.97483837 -15 8 C-11.18528973 2.87738906 -6.52779573 -0.55952535 0 0 Z " fill="#F1FAFC" transform="translate(638,256)"/>
<path d="M0 0 C1.75 0.875 1.75 0.875 3.75 3.875 C4.21021936 9.4896762 3.90793998 13.02530646 0.75 17.875 C-1.82995726 20.63923992 -3.03772444 20.85670038 -6.875 21.1875 C-10.25 20.875 -10.25 20.875 -12.25 18.875 C-12.94090968 13.88598943 -13.0454426 9.34350942 -10.625 4.875 C-7.38802249 2.14912421 -4.3889836 -0.24383242 0 0 Z " fill="#F2FAFC" transform="translate(628.25,233.125)"/>
<path d="M0 0 C0.7734375 0.09925781 1.546875 0.19851563 2.34375 0.30078125 C4.5 0.6875 4.5 0.6875 7.5 1.6875 C7.06604691 7.11191362 5.95068767 10.44808371 2.5 14.6875 C-0.90380276 17.2696952 -4.34521379 17.05846305 -8.5 16.6875 C-10.9375 15.625 -10.9375 15.625 -12.5 13.6875 C-13.0625 10.3125 -13.0625 10.3125 -12.5 6.6875 C-8.89267645 2.30021461 -5.82663893 -0.80601839 0 0 Z " fill="#F3FAFC" transform="translate(679.5,369.3125)"/>
<path d="M0 0 C-0.4770795 5.00933477 -1.85582479 8.06978099 -5 12 C-7.76813831 14.18537235 -9.51025959 14.92857952 -13 15.4375 C-16.68493121 14.9001142 -18.32337671 13.51917486 -21 11 C-20.54713369 6.13168719 -19.41678531 3.51440774 -16 0 C-11.1038962 -3.54545447 -5.15810932 -2.50090149 0 0 Z " fill="#F2FAFC" transform="translate(680,326)"/>
<path d="M0 0 C5.10673374 0.0219802 7.5005689 1.42570124 11.09765625 4.9296875 C13.03386949 7.21524808 13.37113427 8.39111127 13.625 11.4375 C13.5425 12.4275 13.46 13.4175 13.375 14.4375 C9.66253662 16.91247559 6.67906538 17.09653459 2.375 16.4375 C-1.10294735 14.69852632 -3.04756446 13.43488866 -5 10.0625 C-5.70928229 7.08351438 -5.83307374 4.48924818 -5.625 1.4375 C-4.00106095 -0.18643905 -2.24052751 0.11168793 0 0 Z " fill="#F3FAFC" transform="translate(409.625,346.5625)"/>
<path d="M0 0 C4.07703716 0.18962964 5.75217356 0.78449875 8.875 3.5 C11.38201116 6.83730746 11.49269691 9.77428004 11.37109375 13.8515625 C10.9546036 16.26282125 10.32193722 17.94065562 9 20 C6.1875 21 6.1875 21 3 21 C0.25283613 19.22960551 -1.53145922 17.93708156 -3 15 C-3.52274617 9.32016184 -3.71435943 4.64294928 0 0 Z " fill="#F3FBFD" transform="translate(464,231)"/>
<path d="M0 0 C1.63218936 1.63218936 1.28763111 3.43943127 1.375 5.6875 C1.35344639 9.44860572 1.0463979 11.642579 -1.375 14.5625 C-4.28050994 17.26047352 -5.05067656 17.91920652 -8.9375 18.25 C-12 18 -12 18 -13.875 16.875 C-15.57133822 14.04776963 -15.44601397 12.24953036 -15 9 C-10.4136253 0.93430657 -10.4136253 0.93430657 -6.0625 -0.75 C-3.7479595 -1.03055036 -2.19485 -0.75684483 0 0 Z " fill="#F4FAFC" transform="translate(426,414)"/>
<path d="M0 0 C2.3125 0.5 2.3125 0.5 4.3125 3.5 C4.87816283 8.51015652 5.08637982 10.41656825 2.125 14.5625 C-0.6875 16.5 -0.6875 16.5 -3.375 16.5 C-5.6875 15.5 -5.6875 15.5 -7.6875 12.5 C-8.26324266 8.05855661 -8.20909778 6.2004313 -5.5 2.5625 C-2.6875 0.5 -2.6875 0.5 0 0 Z " fill="#EDF8FB" transform="translate(613.6875,266.5)"/>
<path d="M0 0 C1.32 0 2.64 0 4 0 C4 9.57 4 19.14 4 29 C2.68 29 1.36 29 0 29 C0 19.43 0 9.86 0 0 Z " fill="#FEFEFE" transform="translate(1003,971)"/>
<path d="M0 0 C0.66 0.33 1.32 0.66 2 1 C1.65697965 6.98511371 1.17692157 11.75117306 -2 17 C-2.66 16.67 -3.32 16.34 -4 16 C-4.38133299 14.0085944 -4.71325582 12.00720923 -5 10 C-5.33 9.34 -5.66 8.68 -6 8 C-8.12576782 7.53348793 -8.12576782 7.53348793 -10.5625 7.375 C-11.38878906 7.30023437 -12.21507812 7.22546875 -13.06640625 7.1484375 C-13.70449219 7.09945312 -14.34257813 7.05046875 -15 7 C-13.68 6.67 -12.36 6.34 -11 6 C-11 5.01 -11 4.02 -11 3 C-7.54337669 0.69558446 -6.05142119 0.74139865 -2 1 C-1.34 1.33 -0.68 1.66 0 2 C0 1.34 0 0.68 0 0 Z " fill="#F1F1F1" transform="translate(852,967)"/>
<path d="M0 0 C2.22825644 2.22825644 2.69239369 3.65761628 3.625 6.625 C3.88539063 7.44226563 4.14578125 8.25953125 4.4140625 9.1015625 C4.60742188 9.72804688 4.80078125 10.35453125 5 11 C2.03 11 -0.94 11 -4 11 C-3.5247412 9.35303396 -3.04468109 7.70745272 -2.5625 6.0625 C-2.29566406 5.14597656 -2.02882813 4.22945312 -1.75390625 3.28515625 C-1 1 -1 1 0 0 Z " fill="#FEFEFD" transform="translate(985,976)"/>
<path d="M0 0 C0.99 0.33 1.98 0.66 3 1 C3.33 1.99 3.66 2.98 4 4 C4.97891823 6.2515605 4.97891823 6.2515605 7 8 C9.70059799 8.65113232 12.20850947 8.81695144 15 9 C15 9.33 15 9.66 15 10 C11.65576628 10.58715554 8.40037019 11.04804291 5 11 C2.37287472 9.14178944 1.41335162 7.82670323 0 5 C-0.99 5.495 -0.99 5.495 -2 6 C-1.34 4.02 -0.68 2.04 0 0 Z " fill="#E2E2E2" transform="translate(819,988)"/>
<path d="M0 0 C0.66 0 1.32 0 2 0 C2 0.99 2 1.98 2 3 C2.94875 2.95875 3.8975 2.9175 4.875 2.875 C8 3 8 3 10 5 C10.1953125 8.0390625 10.1953125 8.0390625 10.125 11.625 C10.10695313 12.81351562 10.08890625 14.00203125 10.0703125 15.2265625 C10.04710937 16.14179688 10.02390625 17.05703125 10 18 C9.34 18 8.68 18 8 18 C8 14.04 8 10.08 8 6 C3.59232396 4.89808099 2.1077065 5.41293158 -2 7 C-1.125 1.125 -1.125 1.125 0 0 Z " fill="#2C7DAE" transform="translate(418,409)"/>
<path d="M0 0 C0.66 0.33 1.32 0.66 2 1 C-2.16704183 5.85743929 -6.41844996 10.53019508 -11 15 C-11.66 14.67 -12.32 14.34 -13 14 C-11.2088872 12.04115757 -9.41713468 10.08290714 -7.625 8.125 C-7.11710938 7.56941406 -6.60921875 7.01382812 -6.0859375 6.44140625 C-4.0883974 4.25988219 -2.09183907 2.09183907 0 0 Z " fill="#DDF6FC" transform="translate(604,295)"/>
<path d="M0 0 C2.00993705 3.01490557 2.72623341 5.2149927 3.625 8.6875 C3.88539063 9.68136719 4.14578125 10.67523437 4.4140625 11.69921875 C4.60742188 12.45847656 4.80078125 13.21773437 5 14 C5.66 13.01 6.32 12.02 7 11 C7.66 11 8.32 11 9 11 C8.01 13.97 7.02 16.94 6 20 C3.30434515 17.30434515 2.9017293 14.78319847 1.875 11.125 C1.52179688 9.89007812 1.16859375 8.65515625 0.8046875 7.3828125 C0 4 0 4 0 0 Z " fill="#D5EFF9" transform="translate(190,745)"/>
<path d="M0 0 C-1.42598708 3.15703606 -3.1629134 5.58028568 -5.4375 8.1875 C-6.33275391 9.22970703 -6.33275391 9.22970703 -7.24609375 10.29296875 C-9 12 -9 12 -12 13 C-10.33786678 7.86249731 -6.12730521 0 0 0 Z " fill="#D9F0F8" transform="translate(311,714)"/>
<path d="M0 0 C0 0.33 0 0.66 0 1 C-0.68707031 1.10957031 -1.37414062 1.21914063 -2.08203125 1.33203125 C-2.98308594 1.49058594 -3.88414062 1.64914062 -4.8125 1.8125 C-5.70582031 1.96332031 -6.59914063 2.11414063 -7.51953125 2.26953125 C-10.21970481 3.06470047 -11.3305133 3.75937312 -13 6 C-13.25069913 8.62570704 -13.25069913 8.62570704 -13 11 C-13.99 10.34 -14.98 9.68 -16 9 C-15.76774367 5.51615511 -15.62008825 3.6000854 -13.0625 1.125 C-8.69633318 -0.47889802 -4.60103879 -0.24121951 0 0 Z " fill="#CEECF7" transform="translate(655,380)"/>
<path d="M0 0 C0.66 0 1.32 0 2 0 C1.55037804 1.96035175 1.09001752 3.91824309 0.625 5.875 C0.36976562 6.96554687 0.11453125 8.05609375 -0.1484375 9.1796875 C-1 12 -1 12 -3 14 C-3.66 11.36 -4.32 8.72 -5 6 C-4.01 6.33 -3.02 6.66 -2 7 C-1.34 4.69 -0.68 2.38 0 0 Z " fill="#D2EDF8" transform="translate(104,752)"/>
<path d="M0 0 C0.33 0.66 0.66 1.32 1 2 C-1.97519337 6.69165109 -5.31393365 10.84703191 -9 15 C-9.66 14.67 -10.32 14.34 -11 14 C-10.37351562 13.24074219 -9.74703125 12.48148437 -9.1015625 11.69921875 C-8.28429687 10.70535156 -7.46703125 9.71148437 -6.625 8.6875 C-5.81289063 7.70136719 -5.00078125 6.71523438 -4.1640625 5.69921875 C-1.94395043 3.01091621 -1.94395043 3.01091621 0 0 Z " fill="#CFEFF9" transform="translate(692,488)"/>
<path d="M0 0 C0.66 0.33 1.32 0.66 2 1 C0.38405168 3.04119788 -1.2856382 5.04072937 -3 7 C-3.66 7 -4.32 7 -5 7 C-5 8.98 -5 10.96 -5 13 C-5.33 13 -5.66 13 -6 13 C-6.3125 9.8125 -6.3125 9.8125 -6 6 C-3.5625 3.125 -3.5625 3.125 -1 1 C-0.67 0.67 -0.34 0.34 0 0 Z " fill="#D9F2F9" transform="translate(673,370)"/>
<path d="M0 0 C1.134375 0.020625 2.26875 0.04125 3.4375 0.0625 C3.4375 0.3925 3.4375 0.7225 3.4375 1.0625 C1.4575 1.7225 -0.5225 2.3825 -2.5625 3.0625 C-2.2325 7.0225 -1.9025 10.9825 -1.5625 15.0625 C-4.59476378 11.01948163 -4.94956402 10.5146172 -4.8125 5.875 C-4.79703125 4.99457031 -4.7815625 4.11414063 -4.765625 3.20703125 C-4.42013441 -0.44055206 -3.83948764 0.06735943 0 0 Z " fill="#D2EFF9" transform="translate(435.5625,349.9375)"/>
<path d="M0 0 C3.00617269 3.00617269 2.59585316 5.82381598 3 10 C2.67 9.01 2.34 8.02 2 7 C0.02 7.99 0.02 7.99 -2 9 C-1.125 2.25 -1.125 2.25 0 0 Z " fill="#C7E8F4" transform="translate(148,693)"/>
<path d="M0 0 C1 3 1 3 0 6 C0.66 6.33 1.32 6.66 2 7 C0 10 0 10 -2.125 10.6875 C-2.74375 10.790625 -3.3625 10.89375 -4 11 C-3.5247412 9.35303396 -3.04468109 7.70745272 -2.5625 6.0625 C-2.29566406 5.14597656 -2.02882813 4.22945313 -1.75390625 3.28515625 C-1 1 -1 1 0 0 Z " fill="#2073A6" transform="translate(607,262)"/>
<path d="M0 0 C0.33 0.99 0.66 1.98 1 3 C-1.64 5.64 -4.28 8.28 -7 11 C-7.66 10.67 -8.32 10.34 -9 10 C-6.03 6.7 -3.06 3.4 0 0 Z " fill="#1970A6" transform="translate(383,232)"/>
<path d="M0 0 C0 3.77910478 -0.99703962 4.46106101 -3.5 7.1875 C-4.1496875 7.90292969 -4.799375 8.61835938 -5.46875 9.35546875 C-5.9740625 9.89816406 -6.479375 10.44085938 -7 11 C-7.66 10.67 -8.32 10.34 -9 10 C-6.03 6.7 -3.06 3.4 0 0 Z " fill="#176DA1" transform="translate(573,334)"/>
<path d="M0 0 C0.66 0.33 1.32 0.66 2 1 C-0.31 3.64 -2.62 6.28 -5 9 C-5.33 8.01 -5.66 7.02 -6 6 C-4 4 -2 2 0 0 Z " fill="#DDF3F9" transform="translate(568,267)"/>
<path d="M0 0 C-1.423125 0.12375 -1.423125 0.12375 -2.875 0.25 C-4.421875 0.62125 -4.421875 0.62125 -6 1 C-7.16666667 2.91666667 -7.16666667 2.91666667 -8 5 C-10.125 6.25 -10.125 6.25 -12 7 C-10.71111971 4.1248055 -9.46733017 1.9928436 -7 0 C-3.98519175 -1.13055309 -3.16829698 -1.05609899 0 0 Z " fill="#DDF5FB" transform="translate(425,414)"/>
<path d="M0 0 C0.66 0.33 1.32 0.66 2 1 C1.0409375 2.051875 1.0409375 2.051875 0.0625 3.125 C-2.16386102 6.22841233 -2.65080943 8.24620139 -3 12 C-3.66 11.67 -4.32 11.34 -5 11 C-4.54663921 6.12637153 -3.2910841 3.60957611 0 0 Z " fill="#CDECF5" transform="translate(664,326)"/>
<path d="M0 0 C0.33 0.99 0.66 1.98 1 3 C-3.455 6.96 -3.455 6.96 -8 11 C-8.66 10.67 -9.32 10.34 -10 10 C-6.7 6.7 -3.4 3.4 0 0 Z " fill="#D4F1FD" transform="translate(674,510)"/>
<path d="M0 0 C0.7425 0.391875 1.485 0.78375 2.25 1.1875 C-0.24092811 2.43296405 -1.16080733 1.9642578 -3.75 1.1875 C-4.018125 1.80625 -4.28625 2.425 -4.5625 3.0625 C-5.75 5.1875 -5.75 5.1875 -8.75 7.1875 C-7.83178464 4.35633598 -6.98342141 2.43701943 -4.9375 0.25 C-2.75 -0.8125 -2.75 -0.8125 0 0 Z " fill="#D2EEF8" transform="translate(584.75,219.8125)"/>
<path d="M0 0 C0.66 0.33 1.32 0.66 2 1 C-0.97 3.97 -3.94 6.94 -7 10 C-7 7 -7 7 -4.625 4.4375 C-3.75875 3.633125 -2.8925 2.82875 -2 2 C-1.34 1.34 -0.68 0.68 0 0 Z " fill="#E8E8E8" transform="translate(831,975)"/>
<path d="M0 0 C0.66 0.33 1.32 0.66 2 1 C-0.31 3.64 -2.62 6.28 -5 9 C-5.33 8.34 -5.66 7.68 -6 7 C-4.31525278 3.63050557 -3.1808342 2.12055614 0 0 Z " fill="#DAF4FA" transform="translate(387,421)"/>
<path d="M0 0 C3.375 -0.125 3.375 -0.125 7 0 C7.66 0.66 8.32 1.32 9 2 C7.35 2.66 5.7 3.32 4 4 C2.68 2.68 1.36 1.36 0 0 Z " fill="#E5E5E5" transform="translate(826,999)"/>
<path d="M0 0 C2.9375 0.375 2.9375 0.375 6 1 C6.33 1.66 6.66 2.32 7 3 C6.2575 2.95875 5.515 2.9175 4.75 2.875 C1.91241048 3.00398134 0.41226062 3.57051222 -2 5 C-1.34 3.35 -0.68 1.7 0 0 Z " fill="#E0F6FC" transform="translate(464,231)"/>
<path d="M0 0 C0 0.66 0 1.32 0 2 C-1.65385233 3.34919532 -3.321702 4.68133728 -5 6 C-5.66 6.99 -6.32 7.98 -7 9 C-7.3125 6.75 -7.3125 6.75 -7 4 C-2.89189189 0 -2.89189189 0 0 0 Z " fill="#E3F8FD" transform="translate(626,311)"/>
<path d="M0 0 C2.0625 0.4375 2.0625 0.4375 4 1 C2.37660195 2.70884005 0.70680947 4.37446717 -1 6 C-1.66 6 -2.32 6 -3 6 C-1.125 1.125 -1.125 1.125 0 0 Z " fill="#E1F5FB" transform="translate(638,281)"/>
<path d="M0 0 C0.66 0.99 1.32 1.98 2 3 C0.375 5 0.375 5 -2 7 C-5.25 7.25 -5.25 7.25 -8 7 C-4.25 5 -4.25 5 -2 5 C-1.34 3.35 -0.68 1.7 0 0 Z " fill="#1671A7" transform="translate(475,246)"/>
<path d="M0 0 C0.66 0.33 1.32 0.66 2 1 C1.88601335 2.62580966 1.75844341 4.25067157 1.625 5.875 C1.52058594 7.23238281 1.52058594 7.23238281 1.4140625 8.6171875 C1 11 1 11 -1 13 C-0.98839844 12.37351562 -0.97679687 11.74703125 -0.96484375 11.1015625 C-0.95582031 10.28429687 -0.94679688 9.46703125 -0.9375 8.625 C-0.92009766 7.40683594 -0.92009766 7.40683594 -0.90234375 6.1640625 C-0.85533666 3.95062858 -0.85533666 3.95062858 -2 2 C-1.34 2 -0.68 2 0 2 C0 1.34 0 0.68 0 0 Z " fill="#E6E6E6" transform="translate(852,967)"/>
<path d="M0 0 C0.66 0.33 1.32 0.66 2 1 C-0.97 4.96 -0.97 4.96 -4 9 C-4.33 8.01 -4.66 7.02 -5 6 C-3.59554165 3.7363436 -1.8032087 1.9791315 0 0 Z " fill="#D1EDF6" transform="translate(404,399)"/>
<path d="M0 0 C0.33 0.66 0.66 1.32 1 2 C2.88764903 2.68472665 2.88764903 2.68472665 5.0625 3.125 C5.79597656 3.29257812 6.52945313 3.46015625 7.28515625 3.6328125 C7.85105469 3.75398438 8.41695312 3.87515625 9 4 C9 4.33 9 4.66 9 5 C6.36 5 3.72 5 1 5 C0.67 3.35 0.34 1.7 0 0 Z " fill="#2B7CAB" transform="translate(609,389)"/>
<path d="M0 0 C0.66 0.33 1.32 0.66 2 1 C1.01 2.485 1.01 2.485 0 4 C-0.38499891 5.65549531 -0.72793135 7.3222433 -1 9 C-3 7 -3 7 -3.3125 4.5 C-3.209375 3.675 -3.10625 2.85 -3 2 C-2.01 1.34 -1.02 0.68 0 0 Z " fill="#CEECF6" transform="translate(375,342)"/>
<path d="M0 0 C0.66 0.33 1.32 0.66 2 1 C0.02 2.98 -1.96 4.96 -4 7 C-4.99 6.67 -5.98 6.34 -7 6 C-4.69 4.02 -2.38 2.04 0 0 Z " fill="#1570A6" transform="translate(401,216)"/>
<path d="M0 0 C0.66 0.33 1.32 0.66 2 1 C0.38405168 3.04119788 -1.2856382 5.04072937 -3 7 C-3.66 7 -4.32 7 -5 7 C-3.70700306 4.11562221 -2.34058637 2.12780579 0 0 Z " fill="#E0F7FB" transform="translate(638,332)"/>
<path d="M0 0 C-1.39332574 3.36720387 -2.9789286 4.9859524 -6 7 C-5.37162381 3.35541809 -4.14650034 0 0 0 Z " fill="#DEF4FB" transform="translate(579,348)"/>
</svg>
